# xmcd
#
# Track frame offsets:
#	150
#	21829
#	48698
#	77549
#	94612
#	112943
#	132765
#	152933
#	185293
#	214465
#	234004
#	272693
#
# Disc length: 4076 seconds
#
# Revision: 0
# Processed by: cddbd v1.5.2PL0 Copyright (c) Steve Scherf et al.
# Submitted via: EZCDAudioConverter 2.1.7.1
#
DISCID=960fea0c
DTITLE=V/A - Pop Makossa
DYEAR=1900
DGENRE=
TTITLE0=Dream Stars - Pop Makossa Invasion
TTITLE1=Mystic Djim and The Spirits - Yaoundé Girls
TTITLE2=Bill Loko - Nen Lambo
TTITLE3=Pasteur Lappé - Sanaga Calypso
TTITLE4=Eko - M'ongele M'am
TTITLE5=Olinga Gaston - Ngon Engap
TTITLE6=Emmanuel Kahe and Jeanette Kemogne - Ye Medjuie
TTITLE7=Nkodo Si-Tony - Mininga Meyong Mese
TTITLE8=Pasteur Lappé - Sekele Movement
TTITLE9=Bernard Ntone - Mussoloki
TTITLE10=Pat' Ndoye - More Love
TTITLE11=Clément Djimogne - Africa
EXTD=
EXTT0=
EXTT1=
EXTT2=
EXTT3=
EXTT4=
EXTT5=
EXTT6=
EXTT7=
EXTT8=
EXTT9=
EXTT10=
EXTT11=
PLAYORDER=
